<?xml version="1.0" encoding="utf-8"?>
<!-- Generator: Adobe Illustrator 27.6.1, SVG Export Plug-In . SVG Version: 6.00 Build 0)  -->
<svg version="1.1" id="Layer_1" xmlns="http://www.w3.org/2000/svg" xmlns:xlink="http://www.w3.org/1999/xlink" x="0px" y="0px"
	 viewBox="0 0 112 28" style="enable-background:new 0 0 112 28;" xml:space="preserve">
<style type="text/css">
	.st0{fill:#6586C8;}
</style>
<g>
	<path d="M1.8,17.1c0,0,1.64,1.49,3.45,1.49c0.73,0,1.51-0.28,1.51-1.15c0-1.72-6.5-1.66-6.5-6.1c0-2.66,2.24-4.42,5.11-4.42
		c3.11,0,4.64,1.63,4.64,1.63l-1.49,2.89c0,0-1.45-1.27-3.19-1.27c-0.73,0-1.53,0.32-1.53,1.13c0,1.82,6.5,1.49,6.5,6.05
		c0,2.4-1.84,4.48-5.09,4.48c-3.39,0-5.27-2.06-5.27-2.06L1.8,17.1z"/>
	<path d="M19.28,6.93c4.36,0,7.55,3.23,7.55,7.37c0,4.24-3.19,7.55-7.55,7.55s-7.55-3.31-7.55-7.55
		C11.73,10.16,14.92,6.93,19.28,6.93z M19.28,18.61c2.16,0,3.9-1.86,3.9-4.32c0-2.36-1.74-4.14-3.9-4.14c-2.16,0-3.9,1.78-3.9,4.14
		C15.38,16.76,17.12,18.61,19.28,18.61z"/>
	<path d="M35.81,6.93c3.57,0,5.41,2.04,5.41,2.04l-1.64,2.66c0,0-1.61-1.47-3.61-1.47c-2.77,0-4.08,2.04-4.08,4.12
		c0,2.14,1.41,4.34,4.08,4.34c2.18,0,3.83-1.78,3.83-1.78l1.82,2.58c0,0-2.04,2.42-5.81,2.42c-4.52,0-7.57-3.21-7.57-7.49
		C28.24,10.16,31.47,6.93,35.81,6.93z"/>
	<path d="M50.98,18.57h-4.5l-0.87,3.03h-3.63l4.9-14.43h3.71l4.9,14.43h-3.63L50.98,18.57z M48.72,10.46c0,0-0.32,1.57-0.59,2.48
		l-0.83,2.81h2.85l-0.81-2.81c-0.26-0.91-0.59-2.48-0.59-2.48H48.72z"/>
	<path d="M57.12,7.17h3.53v11.4h5.89v3.03h-9.43V7.17z"/>
	<path class="st0" d="M68.48,7.17h3.57l4,6.74c0.57,0.95,1.21,2.46,1.21,2.46h0.04c0,0-0.16-1.55-0.16-2.46V7.17h3.53V21.6h-3.55
		l-4.02-6.72c-0.57-0.95-1.21-2.46-1.21-2.46h-0.04c0,0,0.16,1.55,0.16,2.46v6.72h-3.53V7.17z"/>
	<path class="st0" d="M83.86,7.17h3.53v9.12c0,1.51,0.99,2.32,2.5,2.32c1.51,0,2.5-0.81,2.5-2.32V7.17h3.53v9.12
		c0,3.25-2.38,5.55-6.02,5.55c-3.67,0-6.05-2.3-6.05-5.55V7.17z"/>
	<path class="st0" d="M105.72,6.93c3.69,0,5.55,1.92,5.55,1.92l-1.69,2.64c0,0-1.47-1.33-3.51-1.33c-3.03,0-4.26,1.94-4.26,4.08
		c0,2.74,1.9,4.38,4.14,4.38c1.7,0,2.93-1.05,2.93-1.05v-1.11h-2.04v-3.01H112v8.15h-2.95v-0.4c0-0.3,0.02-0.61,0.02-0.61h-0.04
		c0,0-1.39,1.25-3.79,1.25c-3.69,0-7.08-2.77-7.08-7.49C98.15,10.16,101.32,6.93,105.72,6.93z"/>
</g>
</svg>
