<?xml version="1.0" encoding="UTF-8"?>
<svg id="Layer_1" xmlns="http://www.w3.org/2000/svg" version="1.1" viewBox="0 0 112 28">
  <!-- Generator: Adobe Illustrator 29.6.1, SVG Export Plug-In . SVG Version: 2.1.1 Build 9)  -->
  <defs>
    <style>
      .st0 {
        fill: #fff;
      }
    </style>
  </defs>
  <path class="st0" d="M53.56,6.25h-3.98c-.11,0-.22.08-.26.19l-5.05,14.53c-.04.1.02.19.13.19h2.92c.11,0,.22-.08.26-.19l1.11-3.6h5.58l1.15,3.6c.05.1.15.19.26.19h2.95c.11,0,.17-.08.13-.19l-4.94-14.53c-.05-.1-.15-.19-.26-.19ZM49.48,14.79l1.94-6.37,2.05,6.37s-3.99,0-3.99,0Z"/>
  <path class="st0" d="M68.55,18.75h-6.05l-.09-5.24.09-7.07c0-.1-.08-.19-.19-.19h-2.92c-.1,0-.19.08-.19.19l.11,7.26-.11,7.27c0,.1.08.19.19.19h9.16c.1,0,.19-.09.19-.2v-2.02c0-.1-.08-.19-.19-.19Z"/>
  <path class="st0" d="M82.11,6.25h-2.66c-.1,0-.19.08-.19.19v7.1l.13,3.35-5.99-10.48c-.05-.11-.17-.17-.28-.17h-3.56c-.1,0-.19.08-.19.19l.09,7.27-.09,7.27c0,.1.08.19.19.19h2.66c.1,0,.19-.08.19-.19v-6.39l-.11-3.46-.02-.58,5.86,10.46c.05.11.17.17.28.17h3.69c.1,0,.19-.08.19-.19l-.09-7.27.09-7.27c0-.1-.08-.19-.19-.19Z"/>
  <path class="st0" d="M95.32,6.25h-2.68c-.1,0-.19.08-.19.19l.06,5.11v4.05c0,2.13-.91,3.3-3,3.3-1.94,0-2.79-1.17-2.79-3.3v-4.11l.06-5.05c0-.1-.08-.19-.19-.19h-3c-.1,0-.19.08-.19.19l.09,5.13-.02,4.05c0,3.79,2.09,5.86,6.05,5.86s5.94-2.07,5.93-5.86v-4.05l.06-5.13c0-.1-.08-.19-.19-.19h0Z"/>
  <path class="st0" d="M110.63,13.06h-6.99c-.1,0-.19.08-.19.19v2c0,.1.08.19.19.19h3.71c-.09,2.3-1.45,3.56-3.58,3.56-2.64,0-4.09-2.02-4.09-5.26s1.38-5.35,3.98-5.35c1.83,0,3,.85,3.49,2.49.02.1.12.19.23.19h2.96c.11,0,.17-.08.15-.19-.79-3.13-3.15-4.96-6.86-4.96-4.33,0-7.31,3.07-7.31,7.78s3,7.78,7.41,7.78,7.11-2.71,7.09-8.23c0-.1-.08-.19-.19-.19Z"/>
  <path class="st0" d="M44.73,15.66h-2.86c-.1,0-.21.08-.23.19-.38,2.02-1.51,3.15-3.6,3.15-2.53,0-3.98-1.92-3.98-5.24s1.41-5.33,4.01-5.33c1.94,0,3.11,1.02,3.54,2.81.02.1.12.19.23.19h2.79c.11,0,.17-.08.15-.19-.85-3.99-3.45-5.31-6.67-5.31-3.69,0-6.28,2.1-7.09,5.47-.07-.03-.14-.06-.22-.07-.47-.09-.93.07-1.24.43l-1.07,1.23c0-.1-.03-.2-.06-.3l-.51-1.51c-.08-.22-.03-.48.13-.66l1.76-2.01c.31-.35.41-.85.25-1.31-.15-.44-.53-.77-.99-.86s-.93.07-1.24.42l-.26.29c-.16.19-.4.27-.64.22-.24-.04-.43-.21-.51-.44l-.12-.37c-.15-.45-.53-.78-1.02-.87-.46-.09-.92.07-1.23.43-.31.35-.4.83-.25,1.28l.52,1.52c-.09-.04-.19-.08-.29-.1l-1.56-.31c-.24-.05-.43-.22-.51-.45l-.85-2.51c-.15-.46-.55-.8-1.02-.89-.46-.08-.93.08-1.24.43-.3.36-.4.85-.25,1.29l.13.37c.08.23.03.48-.13.66-.16.19-.4.27-.64.22l-.38-.08c-.47-.09-.95.07-1.27.45-.31.36-.4.84-.25,1.28.16.45.53.77.99.86l1.62.32c-.09.06-.18.14-.26.22l-1.05,1.2c-.16.18-.41.27-.64.22l-2.63-.52c-.46-.09-.94.07-1.26.44-.21.25-.31.55-.31.86-2.78-.91-6.38-.7-6.38-2.64,0-1.24,1.11-1.77,2.64-1.77,1.81,0,2.9.75,3.07,2.09.02.1.1.19.21.19h3.03c.11,0,.17-.08.17-.19-.45-3.2-2.86-4.54-6.35-4.54-3.82,0-5.99,1.75-5.99,4.54,0,5.93,9.52,3.26,9.52,6.63,0,1.4-1.06,1.98-3,1.98-2.45,0-3.2-1.09-3.41-2.75-.02-.1-.1-.19-.21-.19h-3c-.1,0-.19.08-.19.19.14,3.54,2.83,5.18,6.75,5.18,3.46,0,5.74-1.36,6.22-3.87.18-.08.34-.19.47-.34l1.07-1.23c0,.1.02.2.06.29l.51,1.51c.08.23.03.48-.13.66l-1.76,2.01c-.31.35-.41.85-.25,1.31.15.44.53.77.99.86s.93-.07,1.24-.42l.26-.29c.16-.19.4-.27.64-.22.24.05.43.22.51.45l.12.37c.15.45.53.78,1.02.87.09,0,.17.02.25.02.38,0,.74-.16.98-.47.31-.35.4-.83.25-1.28l-.52-1.53c.09.04.19.08.29.1l1.56.31c.24.05.43.22.51.45l.86,2.53c.15.44.53.78,1.01.87.08,0,.17.02.25.02.37,0,.74-.16.99-.45.3-.36.4-.85.25-1.29l-.13-.37c-.08-.23-.03-.48.13-.66.16-.19.4-.27.64-.22l.38.08c.47.09.95-.07,1.27-.45.3-.36.39-.84.24-1.29-.16-.45-.53-.77-.99-.86l-1.57-.31c.08-.06.16-.12.22-.2l1.05-1.2c.16-.18.4-.27.64-.22l2.62.52h.01c1.14,2.41,3.44,3.92,6.59,3.92,3.49,0,5.94-1.58,6.75-5.63.02-.1-.04-.19-.15-.19ZM24.53,6.44c.13-.15.31-.23.51-.23h.14c.24.05.44.22.52.45l.12.36c.16.45.52.78.99.87.46.1.93-.06,1.24-.42l.26-.29c.16-.18.41-.26.64-.22.24.04.43.21.52.46.08.22.03.48-.13.66l-1.76,2.01c-.31.35-.41.85-.26,1.29l.51,1.51c.08.22.03.48-.14.67-.16.18-.4.27-.64.22-.24-.04-.43-.21-.51-.44l-2.14-6.24c-.08-.23-.03-.48.13-.66ZM24.97,18.03c.03.09.08.18.13.26l-3.01-.59c-.46-.09-.93.07-1.24.43-.07.08-.12.17-.17.26l-.99-2.9c-.15-.45-.52-.77-.99-.86-.1-.02-.2-.02-.3-.02l2.01-2.3c.31-.36.4-.84.25-1.29-.04-.11-.09-.21-.16-.3l3.03.59c.09.02.17.03.26.03.38,0,.73-.16.99-.45.07-.08.12-.16.16-.25l1,2.92c.15.45.52.77.99.86.09.01.18.02.26.02h.04l-2.01,2.3c-.31.36-.4.84-.25,1.29ZM17.18,9.4c-.24-.05-.43-.21-.51-.44s-.03-.48.14-.68c.15-.18.4-.27.64-.22l.38.08c.46.1.93-.06,1.24-.42.32-.36.41-.84.26-1.29l-.13-.37c-.08-.23-.03-.48.13-.66s.41-.26.64-.22c.25.05.46.23.54.47l.85,2.51c.15.45.53.78.99.87l1.56.31c.23.05.43.22.51.46.08.23.03.48-.13.66s-.4.27-.64.22c0,0-6.47-1.28-6.47-1.28ZM15.6,16.88c-.16.18-.4.27-.64.22-.24-.05-.43-.21-.52-.46-.08-.23-.03-.49.13-.67l.25-.29c.32-.36.41-.84.26-1.29-.16-.45-.52-.78-.99-.87l-.38-.08c-.24-.04-.43-.21-.51-.44s-.03-.48.14-.68c.13-.15.32-.23.51-.23.04,0,.09,0,.15.03l2.62.52c.46.1.93-.07,1.24-.42l1.05-1.2c.16-.18.4-.27.65-.22.24.04.43.21.51.44s.03.48-.13.66l-4.34,4.98ZM21.1,22.62c-.15.19-.39.27-.65.22-.24-.05-.44-.22-.52-.45l-.12-.37c-.16-.45-.52-.78-.99-.87-.09-.02-.17-.03-.26-.03-.37,0-.72.16-.98.48l-.26.29c-.16.18-.41.26-.64.22-.24-.04-.43-.21-.52-.46-.08-.23-.03-.49.13-.67l1.76-2.01c.31-.35.41-.85.26-1.29l-.51-1.51c-.08-.22-.03-.48.14-.67.16-.18.4-.27.64-.22.24.04.43.21.51.44l2.14,6.24c.08.23.03.48-.13.66ZM28.44,19.62c.24.05.43.21.51.44s.03.48-.14.68c-.15.18-.4.27-.64.22l-.38-.08c-.46-.1-.93.06-1.24.42-.32.36-.41.84-.26,1.29l.13.37c.08.23.03.48-.13.66s-.4.26-.66.21c-.24-.05-.43-.22-.51-.45l-.86-2.53c-.15-.45-.53-.78-.99-.87l-1.56-.31c-.23-.05-.43-.22-.51-.46-.08-.23-.03-.48.13-.66.13-.15.32-.23.51-.23.05,0,.09.01.12.03,0,0,6.48,1.27,6.48,1.27ZM32.29,16.71c-.16.18-.4.27-.64.22l-2.62-.52c-.46-.1-.93.07-1.24.42l-1.05,1.2c-.16.19-.4.27-.65.22-.24-.04-.43-.21-.51-.44-.08-.23-.03-.48.13-.66l4.33-5c.16-.18.4-.26.64-.22.24.05.43.21.52.46.08.23.03.49-.13.67l-.26.29c-.32.36-.41.84-.26,1.29.16.45.52.78.99.87l.38.08c.24.04.43.21.51.44.08.23.03.48-.14.68Z"/>
</svg>