<?xml version="1.0" encoding="utf-8"?>
<!-- Generator: Adobe Illustrator 28.1.0, SVG Export Plug-In . SVG Version: 6.00 Build 0)  -->
<svg version="1.1" id="Layer_1" xmlns="http://www.w3.org/2000/svg" xmlns:xlink="http://www.w3.org/1999/xlink" x="0px" y="0px"
	 viewBox="0 0 112 28" style="enable-background:new 0 0 112 28;" xml:space="preserve">
<style type="text/css">
	.st0{fill:#2A56A4;}
	.st1{fill:#00B4E3;}
	.st2{fill:#FFFFFF;}
	.st3{fill:#2C57A5;}
</style>
<path class="st0" d="M9.38,21.5c-3.92,0-6.61-1.64-6.75-5.18c0-0.11,0.09-0.19,0.19-0.19h3c0.11,0,0.19,0.09,0.21,0.19
	c0.21,1.66,0.96,2.75,3.41,2.75c1.94,0,3-0.58,3-1.98c0-3.37-9.52-0.7-9.52-6.63c0-2.79,2.17-4.54,5.99-4.54
	c3.49,0,5.9,1.34,6.35,4.54c0,0.11-0.06,0.19-0.17,0.19h-3.03c-0.11,0-0.19-0.09-0.21-0.19c-0.17-1.34-1.26-2.09-3.07-2.09
	c-1.53,0-2.64,0.53-2.64,1.77c0,3.17,9.57,0.6,9.57,6.5C15.71,19.8,13.28,21.5,9.38,21.5z"/>
<path class="st0" d="M38.13,21.48c-4.58,0-7.41-3.17-7.41-7.71c0-4.75,2.9-7.84,7.39-7.84c3.22,0,5.82,1.32,6.67,5.31
	c0.02,0.11-0.04,0.19-0.15,0.19l-2.79,0c-0.11,0-0.21-0.09-0.23-0.19c-0.43-1.79-1.6-2.81-3.54-2.81c-2.6,0-4.01,2-4.01,5.33
	c0,3.32,1.45,5.24,3.98,5.24c2.09,0,3.22-1.13,3.6-3.15c0.02-0.11,0.13-0.19,0.23-0.19h2.86c0.11,0,0.17,0.09,0.15,0.19
	C44.07,19.9,41.62,21.48,38.13,21.48z"/>
<path class="st0" d="M55.68,21.16c-0.11,0-0.21-0.09-0.26-0.19l-1.15-3.6h-5.58l-1.11,3.6c-0.04,0.11-0.15,0.19-0.26,0.19h-2.92
	c-0.11,0-0.17-0.09-0.13-0.19l5.05-14.53c0.04-0.11,0.15-0.19,0.26-0.19l3.98,0c0.11,0,0.21,0.09,0.26,0.19l4.94,14.53
	c0.04,0.11-0.02,0.19-0.13,0.19H55.68z M53.47,14.79l-2.05-6.37l-1.94,6.37H53.47z"/>
<path class="st0" d="M59.39,21.16c-0.11,0-0.19-0.09-0.19-0.19l0.11-7.27L59.2,6.44c0-0.11,0.09-0.19,0.19-0.19l2.92,0
	c0.11,0,0.19,0.09,0.19,0.19l-0.09,7.07l0.09,5.24h6.05c0.11,0,0.19,0.09,0.19,0.19v2.02c0,0.11-0.09,0.19-0.19,0.19L59.39,21.16z"
	/>
<path class="st1" d="M72.41,14.58v6.39c0,0.11-0.09,0.19-0.19,0.19h-2.66c-0.11,0-0.19-0.09-0.19-0.19l0.09-7.27l-0.09-7.27
	c0-0.11,0.09-0.19,0.19-0.19l3.56,0c0.11,0,0.23,0.06,0.28,0.17l5.99,10.48l-0.13-3.35V6.44c0-0.11,0.09-0.19,0.19-0.19l2.66,0
	c0.11,0,0.19,0.09,0.19,0.19l-0.09,7.27l0.09,7.27c0,0.11-0.09,0.19-0.19,0.19l-3.69,0c-0.11,0-0.23-0.06-0.28-0.17l-5.86-10.46
	l0.02,0.58L72.41,14.58z"/>
<path class="st1" d="M89.52,21.48c-3.96,0-6.05-2.07-6.05-5.86l0.02-4.05L83.4,6.44c0-0.11,0.09-0.19,0.19-0.19l3,0
	c0.11,0,0.19,0.09,0.19,0.19l-0.06,5.05v4.11c0,2.13,0.85,3.3,2.79,3.3c2.09,0,3-1.17,3-3.3v-4.05l-0.06-5.11
	c0-0.11,0.09-0.19,0.19-0.19l2.68,0c0.11,0,0.19,0.09,0.19,0.19l-0.06,5.13v4.05C95.46,19.41,93.48,21.48,89.52,21.48z"/>
<path class="st1" d="M103.73,21.48c-4.41,0-7.41-3.15-7.41-7.78c0-4.71,2.98-7.78,7.31-7.78c3.71,0,6.07,1.83,6.86,4.96
	c0.02,0.11-0.04,0.19-0.15,0.19h-2.96c-0.11,0-0.21-0.09-0.23-0.19c-0.49-1.64-1.66-2.49-3.49-2.49c-2.6,0-3.98,2.05-3.98,5.35
	c0,3.24,1.45,5.26,4.09,5.26c2.13,0,3.49-1.26,3.58-3.56h-3.71c-0.11,0-0.19-0.09-0.19-0.19v-2c0-0.11,0.09-0.19,0.19-0.19l6.99,0
	c0.11,0,0.19,0.09,0.19,0.19C110.84,18.77,108.33,21.48,103.73,21.48z"/>
<g>
	<path class="st2" d="M19.4,15.6l2.14,6.24c0.25,0.72-0.37,1.44-1.12,1.3l-0.02,0c-0.35-0.07-0.64-0.32-0.76-0.66l-0.12-0.37
		c-0.25-0.72-1.18-0.91-1.69-0.34l-0.26,0.29c-0.23,0.27-0.59,0.39-0.94,0.32l0,0c-0.35-0.07-0.63-0.32-0.75-0.65l-0.01-0.02
		c-0.12-0.34-0.04-0.71,0.19-0.98l1.76-2.01c0.23-0.27,0.31-0.64,0.19-0.98l-0.51-1.51c-0.11-0.33-0.04-0.7,0.19-0.97l0.01-0.01
		C18.21,14.69,19.15,14.88,19.4,15.6z"/>
	<path class="st3" d="M20.6,23.48c-0.08,0-0.16-0.01-0.25-0.02c-0.49-0.09-0.87-0.42-1.02-0.87l-0.12-0.37
		c-0.08-0.23-0.27-0.4-0.51-0.45c-0.24-0.05-0.48,0.03-0.64,0.22l-0.26,0.29c-0.31,0.35-0.78,0.51-1.24,0.42
		c-0.46-0.09-0.84-0.42-0.99-0.86c-0.16-0.46-0.06-0.96,0.25-1.31l1.76-2.01c0.16-0.18,0.21-0.43,0.13-0.66l-0.51-1.51
		c-0.15-0.44-0.05-0.93,0.25-1.28c0.32-0.37,0.78-0.53,1.25-0.44c0.47,0.09,0.84,0.41,0.99,0.86l2.14,6.24
		c0.15,0.45,0.06,0.93-0.25,1.28C21.34,23.32,20.98,23.48,20.6,23.48z M18.56,21.12c0.09,0,0.17,0.01,0.26,0.03
		c0.47,0.09,0.83,0.42,0.99,0.87l0.12,0.37c0.08,0.23,0.28,0.4,0.52,0.45c0.26,0.05,0.5-0.03,0.65-0.22
		c0.16-0.18,0.21-0.43,0.13-0.66l-2.14-6.24c-0.08-0.23-0.27-0.4-0.51-0.44c-0.24-0.05-0.48,0.04-0.64,0.22
		c-0.17,0.19-0.22,0.45-0.14,0.67l0.51,1.51c0.15,0.44,0.05,0.94-0.26,1.29l-1.76,2.01c-0.16,0.18-0.21,0.44-0.13,0.67
		c0.09,0.25,0.28,0.42,0.52,0.46c0.23,0.04,0.48-0.04,0.64-0.22l0.26-0.29C17.84,21.28,18.19,21.12,18.56,21.12z"/>
</g>
<g>
	<path class="st2" d="M20.16,12.11l-4.34,4.98c-0.5,0.57-1.43,0.4-1.69-0.32l-0.01-0.02c-0.12-0.34-0.05-0.72,0.19-0.99l0.26-0.29
		c0.5-0.58,0.2-1.48-0.55-1.63l-0.38-0.08c-0.35-0.07-0.63-0.32-0.75-0.65l0,0c-0.11-0.34-0.04-0.71,0.19-0.97l0.01-0.02
		c0.23-0.27,0.59-0.39,0.94-0.32l2.62,0.52c0.35,0.07,0.71-0.05,0.94-0.32l1.05-1.2c0.23-0.27,0.59-0.39,0.94-0.32l0.02,0
		C20.36,10.62,20.67,11.53,20.16,12.11z"/>
	<path class="st3" d="M15.08,17.74c-0.08,0-0.17-0.01-0.25-0.02c-0.46-0.09-0.83-0.41-0.99-0.85c-0.16-0.47-0.07-0.97,0.24-1.32
		l0.25-0.29c0.16-0.18,0.21-0.43,0.13-0.66c-0.08-0.23-0.27-0.4-0.51-0.45l-0.38-0.08c-0.46-0.09-0.84-0.42-0.99-0.86
		c-0.15-0.44-0.06-0.93,0.25-1.29c0.32-0.37,0.8-0.53,1.26-0.44L16.72,12c0.23,0.05,0.48-0.04,0.64-0.22l1.05-1.2
		c0.31-0.35,0.78-0.51,1.24-0.42c0.48,0.09,0.85,0.42,1.01,0.86c0.15,0.45,0.06,0.93-0.25,1.29l-4.34,4.98
		C15.81,17.58,15.46,17.74,15.08,17.74z M13.85,12.09c-0.19,0-0.38,0.08-0.51,0.23c-0.17,0.2-0.22,0.45-0.14,0.68
		c0.08,0.23,0.27,0.4,0.51,0.44l0.38,0.08c0.47,0.09,0.83,0.42,0.99,0.87c0.15,0.45,0.06,0.93-0.26,1.29l-0.25,0.29
		c-0.16,0.18-0.21,0.44-0.13,0.67c0.09,0.25,0.28,0.41,0.52,0.46c0.24,0.05,0.48-0.04,0.64-0.22l4.34-4.98
		c0.16-0.18,0.21-0.43,0.13-0.66c-0.08-0.23-0.27-0.4-0.51-0.44c-0.25-0.05-0.49,0.04-0.65,0.22l-1.05,1.2
		c-0.31,0.35-0.78,0.52-1.24,0.42l-2.62-0.52C13.94,12.1,13.89,12.09,13.85,12.09z"/>
</g>
<g>
	<path class="st2" d="M22.04,18.02l6.48,1.27c0.75,0.15,1.06,1.04,0.56,1.62l-0.01,0.02c-0.23,0.27-0.6,0.4-0.95,0.33l-0.38-0.08
		c-0.75-0.15-1.38,0.57-1.13,1.29l0.13,0.37c0.11,0.34,0.04,0.71-0.19,0.97l0,0c-0.23,0.27-0.59,0.39-0.94,0.32l-0.02,0
		c-0.35-0.07-0.64-0.32-0.75-0.66l-0.86-2.53c-0.11-0.34-0.4-0.59-0.75-0.66l-1.56-0.31c-0.35-0.07-0.63-0.32-0.75-0.65l-0.01-0.01
		C20.66,18.6,21.29,17.88,22.04,18.02z"/>
	<path class="st3" d="M25.79,24.48c-0.08,0-0.17-0.01-0.25-0.02c-0.48-0.09-0.86-0.43-1.01-0.87l-0.86-2.53
		c-0.08-0.23-0.27-0.4-0.51-0.45L21.6,20.3c-0.46-0.09-0.83-0.42-0.99-0.86c-0.16-0.46-0.07-0.95,0.24-1.31
		c0.31-0.36,0.78-0.52,1.24-0.43l6.48,1.27c0.46,0.09,0.83,0.41,0.99,0.86c0.15,0.45,0.06,0.93-0.24,1.29
		c-0.32,0.38-0.8,0.54-1.27,0.45l-0.38-0.08c-0.24-0.05-0.48,0.03-0.64,0.22c-0.16,0.18-0.21,0.43-0.13,0.66l0.13,0.37
		c0.15,0.44,0.05,0.93-0.25,1.29C26.53,24.32,26.16,24.48,25.79,24.48z M21.84,18.32c-0.19,0-0.38,0.08-0.51,0.23
		c-0.16,0.18-0.21,0.43-0.13,0.66c0.08,0.24,0.28,0.41,0.51,0.46l1.56,0.31c0.46,0.09,0.84,0.42,0.99,0.87l0.86,2.53
		c0.08,0.23,0.27,0.4,0.51,0.45c0.26,0.05,0.5-0.03,0.66-0.21c0.16-0.18,0.21-0.43,0.13-0.66l-0.13-0.37
		c-0.15-0.45-0.06-0.93,0.26-1.29c0.31-0.36,0.78-0.52,1.24-0.42l0.38,0.08c0.24,0.05,0.49-0.04,0.64-0.22
		c0.17-0.2,0.22-0.45,0.14-0.68c-0.08-0.23-0.27-0.39-0.51-0.44l-6.48-1.27C21.93,18.33,21.89,18.32,21.84,18.32z"/>
</g>
<g>
	<path class="st2" d="M26.24,13.45L24.1,7.2c-0.25-0.72,0.37-1.44,1.12-1.3l0.02,0C25.6,5.97,25.89,6.22,26,6.56l0.12,0.37
		c0.25,0.72,1.18,0.91,1.69,0.34l0.26-0.29c0.23-0.27,0.59-0.39,0.94-0.32l0,0c0.35,0.07,0.63,0.32,0.75,0.65l0.01,0.02
		c0.12,0.34,0.04,0.71-0.19,0.98l-1.76,2.01c-0.23,0.27-0.31,0.64-0.19,0.98l0.51,1.51c0.11,0.33,0.04,0.7-0.19,0.97l-0.01,0.01
		C27.43,14.35,26.49,14.17,26.24,13.45z"/>
	<path class="st3" d="M27.19,14.44c-0.08,0-0.17-0.01-0.26-0.02c-0.47-0.09-0.84-0.41-0.99-0.86L23.8,7.3
		c-0.15-0.45-0.06-0.93,0.25-1.28c0.31-0.36,0.77-0.52,1.23-0.43c0.49,0.09,0.87,0.42,1.02,0.87l0.12,0.37
		c0.08,0.23,0.27,0.4,0.51,0.44c0.24,0.05,0.48-0.03,0.64-0.22l0.26-0.29c0.31-0.35,0.78-0.51,1.24-0.42
		c0.46,0.09,0.84,0.42,0.99,0.86c0.16,0.46,0.06,0.96-0.25,1.31l-1.76,2.01c-0.16,0.18-0.21,0.44-0.13,0.66l0.51,1.51
		c0.15,0.44,0.05,0.93-0.25,1.28C27.92,14.27,27.57,14.44,27.19,14.44z M25.04,6.21c-0.2,0-0.38,0.08-0.51,0.23
		c-0.16,0.18-0.21,0.43-0.13,0.66l2.14,6.24c0.08,0.23,0.27,0.4,0.51,0.44c0.24,0.05,0.48-0.04,0.64-0.22
		c0.17-0.19,0.22-0.45,0.14-0.67l-0.51-1.51c-0.15-0.44-0.05-0.94,0.26-1.29l1.76-2.01c0.16-0.18,0.21-0.44,0.13-0.66
		c-0.09-0.25-0.28-0.42-0.52-0.46C28.72,6.92,28.47,7,28.31,7.18l-0.26,0.29c-0.31,0.36-0.78,0.52-1.24,0.42
		c-0.47-0.09-0.83-0.42-0.99-0.87L25.7,6.66c-0.08-0.23-0.28-0.4-0.52-0.45C25.14,6.21,25.09,6.21,25.04,6.21z"/>
</g>
<g>
	<path class="st2" d="M19.4,15.6l2.14,6.24c0.25,0.72-0.37,1.44-1.12,1.3l-0.02,0c-0.35-0.07-0.64-0.32-0.76-0.66l-0.12-0.37
		c-0.25-0.72-1.18-0.91-1.69-0.34l-0.26,0.29c-0.23,0.27-0.59,0.39-0.94,0.32l0,0c-0.35-0.07-0.63-0.32-0.75-0.65l-0.01-0.02
		c-0.12-0.34-0.04-0.71,0.19-0.98l1.76-2.01c0.23-0.27,0.31-0.64,0.19-0.98l-0.51-1.51c-0.11-0.33-0.04-0.7,0.19-0.97l0.01-0.01
		C18.21,14.69,19.15,14.88,19.4,15.6z"/>
	<path class="st3" d="M20.6,23.48c-0.08,0-0.16-0.01-0.25-0.02c-0.49-0.09-0.87-0.42-1.02-0.87l-0.12-0.37
		c-0.08-0.23-0.27-0.4-0.51-0.45c-0.24-0.05-0.48,0.03-0.64,0.22l-0.26,0.29c-0.31,0.35-0.78,0.51-1.24,0.42
		c-0.46-0.09-0.84-0.42-0.99-0.86c-0.16-0.46-0.06-0.96,0.25-1.31l1.76-2.01c0.16-0.18,0.21-0.43,0.13-0.66l-0.51-1.51
		c-0.15-0.44-0.05-0.93,0.25-1.28c0.32-0.37,0.78-0.53,1.25-0.44c0.47,0.09,0.84,0.41,0.99,0.86l2.14,6.24
		c0.15,0.45,0.06,0.93-0.25,1.28C21.34,23.32,20.98,23.48,20.6,23.48z M18.56,21.12c0.09,0,0.17,0.01,0.26,0.03
		c0.47,0.09,0.83,0.42,0.99,0.87l0.12,0.37c0.08,0.23,0.28,0.4,0.52,0.45c0.26,0.05,0.5-0.03,0.65-0.22
		c0.16-0.18,0.21-0.43,0.13-0.66l-2.14-6.24c-0.08-0.23-0.27-0.4-0.51-0.44c-0.24-0.05-0.48,0.04-0.64,0.22
		c-0.17,0.19-0.22,0.45-0.14,0.67l0.51,1.51c0.15,0.44,0.05,0.94-0.26,1.29l-1.76,2.01c-0.16,0.18-0.21,0.44-0.13,0.67
		c0.09,0.25,0.28,0.42,0.52,0.46c0.23,0.04,0.48-0.04,0.64-0.22l0.26-0.29C17.84,21.28,18.19,21.12,18.56,21.12z"/>
</g>
<g>
	<path class="st2" d="M23.59,11l-6.48-1.27c-0.75-0.15-1.06-1.04-0.56-1.62l0.01-0.02c0.23-0.27,0.6-0.4,0.95-0.33l0.38,0.08
		c0.75,0.15,1.38-0.57,1.13-1.29L18.9,6.17c-0.11-0.34-0.04-0.71,0.19-0.97l0,0c0.23-0.27,0.59-0.39,0.94-0.32l0,0
		c0.36,0.07,0.66,0.33,0.78,0.68l0.85,2.51c0.11,0.34,0.4,0.59,0.75,0.66l1.56,0.31c0.35,0.07,0.63,0.32,0.75,0.65l0.01,0.01
		C24.97,10.42,24.34,11.15,23.59,11z"/>
	<path class="st3" d="M23.79,11.34c-0.09,0-0.17-0.01-0.26-0.03h0l-6.48-1.27c-0.46-0.09-0.83-0.41-0.99-0.86
		C15.91,8.74,16,8.26,16.31,7.9c0.32-0.38,0.8-0.54,1.27-0.45l0.38,0.08c0.24,0.05,0.48-0.03,0.64-0.22
		c0.16-0.18,0.21-0.43,0.13-0.66L18.6,6.28c-0.15-0.44-0.05-0.93,0.25-1.29c0.31-0.35,0.78-0.51,1.24-0.43
		c0.47,0.09,0.87,0.43,1.02,0.89l0.85,2.51c0.08,0.23,0.27,0.4,0.51,0.45l1.56,0.31c0.46,0.09,0.83,0.42,0.99,0.86
		c0.16,0.46,0.07,0.95-0.24,1.31C24.52,11.18,24.17,11.34,23.79,11.34z M23.65,10.68c0.24,0.05,0.48-0.04,0.64-0.22
		c0.16-0.18,0.21-0.43,0.13-0.66c-0.08-0.24-0.28-0.41-0.51-0.46l-1.56-0.31c-0.46-0.09-0.84-0.42-0.99-0.87l-0.85-2.51
		c-0.08-0.24-0.29-0.42-0.54-0.47c-0.23-0.04-0.48,0.04-0.64,0.22c-0.16,0.18-0.21,0.43-0.13,0.66l0.13,0.37
		c0.15,0.45,0.06,0.93-0.26,1.29c-0.31,0.36-0.78,0.52-1.24,0.42l-0.38-0.08c-0.24-0.05-0.49,0.04-0.64,0.22
		c-0.17,0.2-0.22,0.45-0.14,0.68c0.08,0.23,0.27,0.39,0.51,0.44L23.65,10.68z"/>
</g>
<g>
	<path class="st2" d="M25.47,16.94l4.34-4.98c0.5-0.57,1.43-0.4,1.69,0.32l0.01,0.02c0.12,0.34,0.05,0.72-0.19,0.99l-0.26,0.29
		c-0.5,0.58-0.2,1.48,0.55,1.63l0.38,0.08c0.35,0.07,0.63,0.32,0.75,0.65v0c0.11,0.34,0.04,0.71-0.19,0.97l-0.01,0.02
		c-0.23,0.27-0.59,0.39-0.94,0.32l-2.62-0.52c-0.35-0.07-0.71,0.05-0.94,0.32l-1.05,1.2c-0.23,0.27-0.59,0.39-0.94,0.32l-0.02,0
		C25.28,18.42,24.96,17.52,25.47,16.94z"/>
	<path class="st3" d="M26.23,18.91c-0.08,0-0.17-0.01-0.25-0.02c-0.48-0.09-0.85-0.42-1.01-0.86c-0.15-0.45-0.06-0.93,0.25-1.29
		l4.34-4.98c0.31-0.36,0.77-0.52,1.24-0.43c0.46,0.09,0.83,0.41,0.99,0.85c0.16,0.47,0.07,0.97-0.24,1.32l-0.26,0.29
		c-0.16,0.18-0.21,0.43-0.13,0.66c0.08,0.23,0.27,0.4,0.51,0.44l0.38,0.08c0.46,0.09,0.84,0.42,0.99,0.86
		c0.15,0.44,0.05,0.93-0.25,1.29c-0.32,0.37-0.8,0.53-1.26,0.44l-2.62-0.52c-0.24-0.05-0.48,0.04-0.64,0.22l-1.05,1.2
		C26.97,18.75,26.61,18.91,26.23,18.91z M25.71,17.15c-0.16,0.18-0.21,0.43-0.13,0.66c0.08,0.23,0.27,0.4,0.51,0.44
		c0.25,0.05,0.49-0.03,0.65-0.22l1.05-1.2c0.31-0.35,0.78-0.52,1.24-0.42l2.62,0.52c0.24,0.05,0.48-0.04,0.64-0.22
		c0.17-0.2,0.22-0.45,0.14-0.68c-0.08-0.23-0.27-0.4-0.51-0.44l-0.38-0.08c-0.47-0.09-0.83-0.42-0.99-0.87
		c-0.15-0.45-0.06-0.93,0.26-1.29l0.26-0.29c0.16-0.18,0.21-0.44,0.13-0.67c-0.09-0.25-0.28-0.41-0.52-0.46
		c-0.24-0.04-0.48,0.04-0.64,0.22L25.71,17.15z"/>
</g>
<g>
</g>
<g>
</g>
<g>
</g>
<g>
</g>
<g>
</g>
<g>
</g>
<g>
</g>
<g>
</g>
<g>
</g>
<g>
</g>
<g>
</g>
<g>
</g>
<g>
</g>
<g>
</g>
<g>
</g>
</svg>
